<svg id="Laag_1" data-name="Laag 1" xmlns="http://www.w3.org/2000/svg" viewBox="0 0 435.97 197.6"><defs><style>.cls-1{fill:#119995;}.cls-2{fill:#932a86;}.cls-3{fill:#f0a208;}.cls-4{fill:#dd4372;}.cls-5{fill:#007b64;}.cls-6{fill:#46315f;}.cls-7{fill:#632583;}.cls-8{fill:#e16e0f;}.cls-9{fill:#e26f0e;}.cls-10{fill:#d84e15;}.cls-11{fill:#d74d16;}.cls-12{fill:#cf1d50;}.cls-13{fill:#eb98aa;}.cls-14{fill:#dd5b79;}.cls-15{fill:#d4321b;}.cls-16{fill:#8e2e2a;}.cls-17{fill:#453060;}</style></defs><path class="cls-1" d="M254.9,91.8a21.74,21.74,0,1,1,21.62-21.86,7.56,7.56,0,0,0,15.12,0A36.73,36.73,0,0,0,221.34,55a36.25,36.25,0,0,0-3.17,14.92c0,.31,0,.63,0,.94a36.86,36.86,0,0,0,11.07,25.5,36.41,36.41,0,0,0,25.65,10.53,21.65,21.65,0,0,1,20.47,14.83l.16.46-.48.11a36.9,36.9,0,0,0-27.36,26.33l-.13.48-.46-.18A21.67,21.67,0,0,1,233.32,130c0-.41,0-.82,0-1.22a7.54,7.54,0,1,0-15.08,0v1.57A36.74,36.74,0,1,0,254.9,91.8Zm18.66,47.9a21.65,21.65,0,0,1-8.45,8.13l-1.39.75.8-1.36a21.83,21.83,0,0,1,8.44-8.13l1.4-.75Z"/><path class="cls-2" d="M182.34,139.78a25.4,25.4,0,0,0,45.86,15.05,25.16,25.16,0,0,0,5-15.05v-9.73c0-.4,0-.81,0-1.21a7.4,7.4,0,1,0-14.79,0v10.94a10.59,10.59,0,0,1-21.17,0V70.6h.59l3.06,0a7.4,7.4,0,0,0,4.74-1.76l.37-.31.38.31A7.49,7.49,0,0,0,211,70.47h.14l6.6-.11,6.11-.1a7.41,7.41,0,0,0-.16-14.82h-.09l-2.65.05-10.07.16a7.45,7.45,0,0,0-4.66,1.76l-.38.32-.38-.31a7.4,7.4,0,0,0-4.67-1.66h0l-3,0h-.6V30.3a7.41,7.41,0,1,0-14.82,0V55.88h-.58L164.84,56V70.79l16.91-.08h.59v69.08Z"/><path class="cls-3" d="M169,55.44V40.88a8,8,0,1,0-16,0v99a10,10,0,1,1-20,0h0l0-94.7v.09c-.07,4.38-16.06,4.19-16-.22v.11l0,94.72a26,26,0,1,0,52,0V83.4a1.15,1.15,0,0,0,0-.19V55.44Z"/><path class="cls-4" d="M84.72,69.89l-.31-.37.31-.38a5.33,5.33,0,0,0-2.78-8.57l-.48-.12,0-.49a5.34,5.34,0,0,0-2.19-4.65,5.31,5.31,0,0,0-5.1-.64l-.46.18-.26-.41a5.33,5.33,0,0,0-9,0l-.26.41-.46-.18A5.33,5.33,0,0,0,56.47,60l0,.49-.48.12a5.33,5.33,0,0,0-2.78,8.57l.31.38-.31.37A5.33,5.33,0,0,0,56,78.46l.48.13,0,.48a5.35,5.35,0,0,0,7.29,5.3l.46-.18.26.41a5.33,5.33,0,0,0,9,0l.26-.41.46.18a5.33,5.33,0,0,0,7.29-5.3l0-.48.48-.13a5.33,5.33,0,0,0,2.78-8.57Zm-8.21,0a5.33,5.33,0,0,0-1.22,3.74l0,.49-.47.12a5.43,5.43,0,0,0-3.18,2.31l-.26.42L71,76.79a5.27,5.27,0,0,0-3.93,0l-.46.18-.26-.42a5.43,5.43,0,0,0-3.18-2.31l-.47-.12,0-.49a5.33,5.33,0,0,0-1.22-3.74l-.31-.37.31-.38a5.29,5.29,0,0,0,1.22-3.74l0-.49.47-.12a5.18,5.18,0,0,0,1.81-.85,5.29,5.29,0,0,0,1.37-1.46l.26-.41.46.18a5.4,5.4,0,0,0,3.93,0l.46-.18.26.41A5.29,5.29,0,0,0,73,63.94a5.18,5.18,0,0,0,1.81.85l.47.12,0,.49a5.29,5.29,0,0,0,1.22,3.74l.31.38Z"/><path class="cls-4" d="M132.22,44.84a24.92,24.92,0,0,0-1-8.05,20.74,20.74,0,0,0-39.32,0,15.9,15.9,0,0,0-.59,2.66l-.15.95-.78-.56A36.57,36.57,0,0,0,42.65,94.89l.44.46-.49.4a22,22,0,0,0,13.19,38.94h.34l28.2.49h.13a7.18,7.18,0,0,1,0,14.36H32.29a7.41,7.41,0,0,0,0,14.82h53a22,22,0,0,0-.71-44L57,119.9H56.6a7.18,7.18,0,0,1-.16-14.36h0l9.16.43c1.12.1,2.24.15,3.35.15h.06a36.62,36.62,0,0,0,36.59-36.57l.06-24.64a25.31,25.31,0,0,1,.3-3.59v-.06a5.93,5.93,0,0,1,11.08.09,11.56,11.56,0,0,1,.32,3.31v.07a7.41,7.41,0,0,0,7.31,7.51h.11a7.43,7.43,0,0,0,7.4-7.3Zm-63,46.45h0l-2.45-.12h0a21.75,21.75,0,1,1,2.52.12Z"/><path class="cls-1" d="M254.9,91.36a8,8,0,0,1,0,16h0A21.24,21.24,0,0,1,275,121.88a36.75,36.75,0,0,1,8.18-.91H284a8,8,0,0,1-.17,16h-.63a21.12,21.12,0,0,0-10,2.51,21.3,21.3,0,0,1-8.27,8,21.09,21.09,0,0,0-2.9,10.25,8,8,0,0,1-8,7.83h-.18a8,8,0,0,1-7.82-8.17,36.6,36.6,0,0,1,1.25-8.82A21.22,21.22,0,0,1,233.76,130v9.74a25.8,25.8,0,0,1-5.07,15.4A37.24,37.24,0,1,0,254.9,91.36"/><path class="cls-1" d="M254.9,32.76a37.23,37.23,0,0,0-34,22.08l2.65-.05h.1a8,8,0,0,1,.16,16l-6.1.1a37.33,37.33,0,0,0,37.16,36.47,8,8,0,0,1,0-16h0a21.3,21.3,0,1,1,21.18-21.42,8,8,0,0,0,16,0A37.22,37.22,0,0,0,254.9,32.76"/><path class="cls-5" d="M254.9,91.36a8,8,0,0,0,0,16h0a8,8,0,0,0,0-16h0"/><path class="cls-1" d="M275,121.88a37.33,37.33,0,0,0-27.7,26.65,21.11,21.11,0,0,0,17.64-1.09,21.44,21.44,0,0,1,8.27-8,21,21,0,0,0,2.91-10.7,21.6,21.6,0,0,0-1.12-6.9"/><path class="cls-5" d="M264.9,147.44a21.11,21.11,0,0,1-17.64,1.09,36.6,36.6,0,0,0-1.25,8.82,8,8,0,0,0,7.82,8.17H254a8,8,0,0,0,8-7.83,21.09,21.09,0,0,1,2.9-10.25M283.14,121a36.75,36.75,0,0,0-8.18.91,21.6,21.6,0,0,1,1.12,6.9,21,21,0,0,1-2.91,10.7,21.12,21.12,0,0,1,10-2.51h.63a8,8,0,0,0,.17-16h-.83"/><path class="cls-2" d="M220.93,54.84,210.86,55a8,8,0,0,0-5,1.9A8,8,0,0,1,206,69.21,8,8,0,0,0,211,71h.14l6.61-.11c0-.32,0-.63,0-1a36.91,36.91,0,0,1,3.2-15.1"/><path class="cls-6" d="M223.68,54.79h-.1l-2.65.05a36.91,36.91,0,0,0-3.2,15.1c0,.32,0,.63,0,1l6.1-.1a8,8,0,0,0-.16-16"/><path class="cls-2" d="M200.78,55.11h-.06l-2.95,0v16l3.06,0a8,8,0,0,0,5.12-1.9,8,8,0,0,1-.13-12.31,7.94,7.94,0,0,0-5-1.79"/><path class="cls-7" d="M205.82,56.9A8,8,0,0,0,206,69.21a8,8,0,0,0-.13-12.31"/><path class="cls-2" d="M189.77,22.24a8,8,0,0,0-8,8V139.72h0a8,8,0,0,1,16,0V30.24a8,8,0,0,0-8-8"/><path class="cls-2" d="M217.76,130.36v9.36a10,10,0,0,1-20,0h0a8,8,0,0,1-16,0,26,26,0,0,0,46.92,15.4,37.05,37.05,0,0,1-10.93-24.76"/><path class="cls-6" d="M225.74,120.78a8,8,0,0,0-8,8v1.58a37.05,37.05,0,0,0,10.93,24.76,25.8,25.8,0,0,0,5.07-15.4V130q0-.6,0-1.2a8,8,0,0,0-8-8"/><path class="cls-7" d="M189.77,131.72a8,8,0,0,0-8,8h0a8,8,0,0,0,16,0h0a8,8,0,0,0-8-8"/><polyline class="cls-2" points="181.77 55.24 168.99 55.32 168.99 71.32 181.77 71.24 181.77 55.24"/><path class="cls-3" d="M117,44.82V45l0,94.72h0c0-4.42,16-4.42,16,0h0L133,45v.09c-.06,4.38-16.06,4.19-16-.22v-.07"/><path class="cls-3" d="M169,83.09v.19c0,2.85-15.94,2.94-16,.16v56.28a10,10,0,1,1-20,0h0c0,4.42-16,4.42-16,0a26,26,0,1,0,52,0V83.09"/><path class="cls-8" d="M125,131.72a8,8,0,0,0-8,8h0a8,8,0,0,0,8,8h0a8,8,0,1,0,0-16"/><path class="cls-3" d="M161,32.76a8,8,0,0,0-8,8V83.28c0-4.42,15.9-4.52,16-.19V71.32l-5.1,0h-.06a8,8,0,0,1-.05-16l5.21,0V40.76a8,8,0,0,0-8-8"/><path class="cls-8" d="M161,75.28a8,8,0,0,0-8,8v.16a8,8,0,0,0,3.74,6.61,4.33,4.33,0,0,1,8.52,0A8,8,0,0,0,169,83.28v-.19a8,8,0,0,0-8-7.81"/><path class="cls-9" d="M124.92,76.44a4.34,4.34,0,0,0-3.38,7,4.33,4.33,0,0,1,6.77,0,4.34,4.34,0,0,0-3.39-7"/><path class="cls-9" d="M128.31,83.49a4.33,4.33,0,0,1-6.77,0,4.27,4.27,0,0,0-1,2.71,4.34,4.34,0,1,0,8.67,0,4.27,4.27,0,0,0-.95-2.71"/><path class="cls-10" d="M124.92,81.86a4.29,4.29,0,0,0-3.38,1.63,4.33,4.33,0,0,0,6.77,0,4.29,4.29,0,0,0-3.39-1.63"/><path class="cls-9" d="M124.92,59.38a4.34,4.34,0,1,0,4.34,4.34,4.33,4.33,0,0,0-4.34-4.34"/><path class="cls-9" d="M161,131.91a4.34,4.34,0,0,0-3.18,7.29,4.34,4.34,0,0,1,6.37,0,4.35,4.35,0,0,0-3.19-7.29"/><path class="cls-9" d="M148.84,152.31a4.34,4.34,0,1,0,4.25,5.22,4.35,4.35,0,0,1-3-5,4.36,4.36,0,0,0-1.26-.18"/><path class="cls-9" d="M157.26,144.36a4.33,4.33,0,0,0-2.91,4.1,3.77,3.77,0,0,0,0,.58,4.34,4.34,0,0,1,4.26,3.76h0a4.35,4.35,0,0,0,4.34-4.34,4.4,4.4,0,0,0-.61-2.22,4.25,4.25,0,0,1-1.43.24,4.32,4.32,0,0,1-3.73-2.12"/><path class="cls-9" d="M154.35,149a4.34,4.34,0,0,0-4.25,3.45,4.35,4.35,0,0,1,3.08,4.16,4.24,4.24,0,0,1-.09.88,4.33,4.33,0,0,0,5.6-4.15,5.46,5.46,0,0,0,0-.58,4.34,4.34,0,0,1-4.26-3.76h0"/><path class="cls-10" d="M154.39,149a4.34,4.34,0,0,0,4.26,3.76,4.34,4.34,0,0,0-4.26-3.76"/><path class="cls-9" d="M164.18,139.2a4.34,4.34,0,0,1-6.37,0,4.32,4.32,0,0,0-.55,5.16,4.25,4.25,0,0,1,1.43-.24,4.35,4.35,0,0,1,3.73,2.12,4.34,4.34,0,0,0,1.76-7"/><path class="cls-10" d="M161,137.81a4.29,4.29,0,0,0-3.18,1.39,4.34,4.34,0,0,0,6.37,0,4.33,4.33,0,0,0-3.19-1.39"/><path class="cls-10" d="M158.69,144.12a4.25,4.25,0,0,0-1.43.24,4.32,4.32,0,0,0,3.73,2.12,4.25,4.25,0,0,0,1.43-.24,4.35,4.35,0,0,0-3.73-2.12"/><path class="cls-9" d="M125,98.08a4.34,4.34,0,0,0-4.34,4.34v8a4.34,4.34,0,0,0,.83,2.55,4.34,4.34,0,0,1,7,0,4.34,4.34,0,0,0,.83-2.55v-8A4.35,4.35,0,0,0,125,98.08"/><path class="cls-9" d="M128.54,112.93a4.34,4.34,0,0,1-7,0,4.34,4.34,0,0,0-.83,2.55v8a4.34,4.34,0,0,0,8.68,0v-8a4.34,4.34,0,0,0-.83-2.55"/><path class="cls-10" d="M125,111.14a4.35,4.35,0,0,0-3.51,1.79,4.34,4.34,0,0,0,7,0,4.35,4.35,0,0,0-3.51-1.79"/><path class="cls-9" d="M165.25,90.05a8,8,0,0,1-8.52,0,4.26,4.26,0,0,0-.08.8v8a4.34,4.34,0,0,0,8.68,0v-8a4.26,4.26,0,0,0-.08-.8"/><path class="cls-11" d="M161,86.51a4.34,4.34,0,0,0-4.26,3.54,8,8,0,0,0,8.52,0A4.33,4.33,0,0,0,161,86.51"/><path class="cls-10" d="M150.1,152.49a4.35,4.35,0,0,0,3,5,4.24,4.24,0,0,0,.09-.88,4.35,4.35,0,0,0-3.08-4.16"/><path class="cls-4" d="M65.77,106.72c1.11.1,2.24.15,3.38.15h-.31l-3.07-.14m3.38-74.2a37.16,37.16,0,0,0-26.77,63,22.51,22.51,0,0,1,14.38-5.18h.37l9.8.46a21.22,21.22,0,1,1,2.45.11h0a21.2,21.2,0,0,0,21-21.18l.06-24.81a41,41,0,0,1,.41-5.35,37,37,0,0,0-21.71-7"/><path class="cls-4" d="M57.2,119.48c4.21.23,4,16-.44,16h-.48l28.2.49h.13a6.59,6.59,0,0,1,0,13.18h.33c4.42,0,4.68,15.73.49,16A22.59,22.59,0,0,0,84.69,120l-27.49-.48"/><path class="cls-4" d="M85.43,165.12l-.82,0h.33l.49,0m-.82-16H32.45a8,8,0,0,0,0,16H84.61c-4.42,0-4.42-16,0-16h0"/><path class="cls-12" d="M84.94,149.14h-.33a8,8,0,0,0,0,16h0l.82,0a8,8,0,0,0-.49-16"/><path class="cls-13" d="M69.14,51.54a5.93,5.93,0,0,0-5,2.75A5.93,5.93,0,0,1,67,63a5.89,5.89,0,0,0,4.37,0,5.93,5.93,0,0,1,2.82-8.68,5.93,5.93,0,0,0-5-2.75"/><path class="cls-13" d="M69.14,76a6.08,6.08,0,0,0-2.18.41,5.92,5.92,0,0,1-2.82,8.68,5.92,5.92,0,0,0,10,0,5.92,5.92,0,0,1-2.82-8.68A6.09,6.09,0,0,0,69.14,76"/><path class="cls-13" d="M62,53.88a5.92,5.92,0,0,0-5.9,6.3A5.47,5.47,0,0,1,57.51,60a5.78,5.78,0,0,1,1.83.29,5.93,5.93,0,0,1,4.09,5.26A5.95,5.95,0,0,0,67,63a5.93,5.93,0,0,1-2.82-8.68A6.08,6.08,0,0,0,62,53.88"/><path class="cls-14" d="M64.14,54.29A5.93,5.93,0,0,0,67,63a5.93,5.93,0,0,0-2.82-8.68"/><path class="cls-13" d="M74.86,73.85a5.79,5.79,0,0,0-2,1,6,6,0,0,0-1.52,1.61,5.93,5.93,0,0,1,2.82,8.68,5.92,5.92,0,0,0,8.09-5.88,5.9,5.9,0,0,1-1.46.19,6.2,6.2,0,0,1-1.84-.29,6,6,0,0,1-4.08-5.26"/><path class="cls-14" d="M71.33,76.41a5.92,5.92,0,0,0,2.82,8.68,5.93,5.93,0,0,0-2.82-8.68"/><path class="cls-13" d="M56.05,60.18A5.92,5.92,0,0,0,53,69.69a6,6,0,0,1,2.73-1.85,5.94,5.94,0,0,1,6.4,1.85,5.91,5.91,0,0,0,1.35-4.15,6.1,6.1,0,0,1-1.47.18,5.91,5.91,0,0,1-4.8-2.44,5.84,5.84,0,0,1-1.11-3.1"/><path class="cls-14" d="M57.51,60a5.47,5.47,0,0,0-1.46.19,5.84,5.84,0,0,0,1.11,3.1A5.91,5.91,0,0,0,62,65.72a6.1,6.1,0,0,0,1.47-.18,5.93,5.93,0,0,0-4.09-5.26A5.78,5.78,0,0,0,57.51,60"/><path class="cls-13" d="M85.34,69.69a5.94,5.94,0,0,1-2.74,1.86,5.78,5.78,0,0,1-1.83.29,6,6,0,0,1-4.56-2.15,6,6,0,0,0-1.35,4.16,5.65,5.65,0,0,1,1.47-.19,5.9,5.9,0,0,1,4.79,2.45,5.78,5.78,0,0,1,1.12,3.1,5.93,5.93,0,0,0,3.1-9.52"/><path class="cls-14" d="M76.33,73.66a5.65,5.65,0,0,0-1.47.19,6,6,0,0,0,4.08,5.26,6.2,6.2,0,0,0,1.84.29,5.9,5.9,0,0,0,1.46-.19,5.78,5.78,0,0,0-1.12-3.1,5.9,5.9,0,0,0-4.79-2.45"/><path class="cls-13" d="M62.08,69.69a6,6,0,0,1-4.56,2.15,5.89,5.89,0,0,1-1.84-.29A6,6,0,0,1,53,69.69a5.93,5.93,0,0,0,3.1,9.52,5.84,5.84,0,0,1,1.11-3.1A5.92,5.92,0,0,1,62,73.66a5.65,5.65,0,0,1,1.47.19,6,6,0,0,0-1.35-4.16"/><path class="cls-14" d="M57.52,67.55a5.89,5.89,0,0,0-1.84.29A6,6,0,0,0,53,69.69a6,6,0,0,0,2.73,1.86,5.89,5.89,0,0,0,1.84.29,6,6,0,0,0,4.56-2.15,5.94,5.94,0,0,0-4.56-2.14"/><path class="cls-13" d="M82.24,60.18a5.78,5.78,0,0,1-1.12,3.1,5.89,5.89,0,0,1-4.79,2.44,6.1,6.1,0,0,1-1.47-.18,5.91,5.91,0,0,0,1.35,4.15,5.94,5.94,0,0,1,4.56-2.14,5.78,5.78,0,0,1,1.83.29,6,6,0,0,1,2.74,1.85,5.92,5.92,0,0,0-3.1-9.51"/><path class="cls-14" d="M80.77,67.55a5.94,5.94,0,0,0-4.56,2.14,6,6,0,0,0,4.56,2.15,5.78,5.78,0,0,0,1.83-.29,5.94,5.94,0,0,0,2.74-1.86,6,6,0,0,0-2.74-1.85,5.78,5.78,0,0,0-1.83-.29"/><path class="cls-13" d="M63.43,73.85a5.94,5.94,0,0,1-4.09,5.26,6.08,6.08,0,0,1-1.83.29,5.9,5.9,0,0,1-1.46-.19,5.91,5.91,0,0,0,8.09,5.88A5.93,5.93,0,0,1,67,76.41a6,6,0,0,0-1.52-1.61,5.87,5.87,0,0,0-2-1"/><path class="cls-14" d="M67,76.41a5.93,5.93,0,0,0-2.82,8.68A5.92,5.92,0,0,0,67,76.41"/><path class="cls-14" d="M62,73.66a5.92,5.92,0,0,0-4.8,2.45,5.84,5.84,0,0,0-1.11,3.1,5.9,5.9,0,0,0,1.46.19,6.08,6.08,0,0,0,1.83-.29,5.94,5.94,0,0,0,4.09-5.26A5.65,5.65,0,0,0,62,73.66"/><path class="cls-13" d="M76.34,53.88a6.08,6.08,0,0,0-2.19.41A5.93,5.93,0,0,1,71.33,63a5.95,5.95,0,0,0,3.53,2.57A5.92,5.92,0,0,1,80.78,60a5.47,5.47,0,0,1,1.46.19,5.92,5.92,0,0,0-5.9-6.3"/><path class="cls-14" d="M74.15,54.29A5.93,5.93,0,0,0,71.33,63a5.93,5.93,0,0,0,2.82-8.68"/><path class="cls-14" d="M80.78,60a5.92,5.92,0,0,0-5.92,5.55,6.1,6.1,0,0,0,1.47.18,5.89,5.89,0,0,0,4.79-2.44,5.78,5.78,0,0,0,1.12-3.1A5.47,5.47,0,0,0,80.78,60"/><path class="cls-4" d="M42.38,95.47a22.59,22.59,0,0,0,13.55,40c-4.25-.26-3.87-16,.49-16h.34a6.59,6.59,0,0,1-.15-13.17l9.16.42A37.09,37.09,0,0,1,42.38,95.47m24.55-4.71c.73.07,1.47.11,2.22.11h.23l-2.45-.11M111.7,22.24A20.83,20.83,0,0,0,91.48,36.78a18.48,18.48,0,0,0-.62,2.75,37.17,37.17,0,0,1-21.65,67.34h0a37.22,37.22,0,0,0,37.18-37.16l.06-24.64a27,27,0,0,1,.28-3.46,5.34,5.34,0,0,1,10,.09,11,11,0,0,1,.28,3.12c.1-4.34,16-4.24,16,.18v0a25.47,25.47,0,0,0-1.05-8.23A20.84,20.84,0,0,0,111.7,22.24"/><path class="cls-12" d="M90.86,39.53a41,41,0,0,0-.41,5.35l-.06,24.81a21.2,21.2,0,0,1-21,21.18h-.23c-.75,0-1.49,0-2.22-.11l-9.8-.46h-.37a22.51,22.51,0,0,0-14.38,5.18,37.09,37.09,0,0,0,23.39,11.25l3.07.14h.37A37.17,37.17,0,0,0,90.86,39.53"/><path class="cls-12" d="M56.42,119.47a8,8,0,0,0-.49,16h.83a8,8,0,0,0,.44-16h-.78"/><path class="cls-15" d="M125,37h0a8,8,0,0,0-8,7.82v.07A8,8,0,0,0,124.86,53H125a8,8,0,0,0,8-7.89V45a8,8,0,0,0-8-8"/><path class="cls-16" d="M169,55.32l-5.21,0a8,8,0,0,0,.05,16h.06l5.1,0v-16"/><path class="cls-17" d="M319.2,54.47h-1.79a14.69,14.69,0,0,1-.14-1.93,3.68,3.68,0,0,1-3.73,2.22c-4,0-5.13-4-5.13-9.58,0-6.49,2-9.63,5.86-9.63,4.58,0,4.87,4,4.93,5.15h-2.29c-.05-.68-.2-3.17-2.7-3.17s-3.41,3.06-3.41,7.62.66,7.63,3.19,7.63c2.37,0,2.94-2,2.94-5.65V46.2h-3.1v-2h5.37Z"/><path class="cls-17" d="M324.77,48.78l-1.28,5.69H321.2l4.47-18.65h3l4.58,18.65h-2.42l-1.29-5.69Zm4.29-2c-1-4.39-1.68-7.25-1.94-8.79h-.06c-.25,1.64-1,4.89-1.85,8.79Z"/><path class="cls-17" d="M337,49.51c.15,1.85,1,3.34,3,3.34s2.8-1.06,2.8-3.06-.78-2.9-3.29-4.1c-3-1.42-4.25-2.72-4.25-5.44a4.45,4.45,0,0,1,4.8-4.69c3.71,0,4.7,2.63,4.75,4.87h-2.25c-.1-.94-.37-3-2.57-3a2.32,2.32,0,0,0-2.44,2.61c0,1.7.76,2.5,3.07,3.59,3.28,1.56,4.53,3.1,4.53,5.94s-1.69,5.15-5.22,5.15c-3.84,0-5.09-2.5-5.23-5.23Z"/><path class="cls-17" d="M350.26,37.85h-4.13v-2h10.54v2h-4.12V54.47h-2.29Z"/><path class="cls-17" d="M360.91,46v8.47h-2.28V35.82h5c3.18,0,4.87,1.77,4.87,4.87,0,2.77-1.38,4-2.48,4.34,1.68.62,2.24,2.09,2.24,4.73v.75a21.26,21.26,0,0,0,.26,4h-2.26a17.31,17.31,0,0,1-.28-4v-.64c0-2.62-.55-3.82-3-3.82Zm0-1.92h2.23c2.22,0,3.07-1.2,3.07-3.32,0-1.82-.85-3-2.85-3h-2.45Z"/><path class="cls-17" d="M382.11,45c0,6.45-1.58,9.78-5.66,9.78-3.88,0-5.54-3.22-5.54-9.75s1.95-9.46,5.64-9.46C380.45,35.55,382.11,38.63,382.11,45Zm-8.84,0c0,5.15,1,7.82,3.24,7.82s3.24-2.57,3.24-7.79-1-7.46-3.25-7.46S373.27,40.06,373.27,45Z"/><path class="cls-17" d="M390,43.86v2h-5.7v-2Z"/><path class="cls-17" d="M311.4,63.46V82.11h-2.3V63.46Z"/><path class="cls-17" d="M315,82.11V63.46h2.76c4.91,12.42,5.64,14.21,5.87,15h0c-.13-2.45-.16-5.25-.16-8.29V63.46h2.12V82.11H323c-5.09-13.07-5.76-14.84-6-15.6h0c.13,2.33.15,5.33.15,8.68v6.92Z"/><path class="cls-17" d="M331.62,65.49H327.5v-2H338v2h-4.13V82.11h-2.29Z"/><path class="cls-17" d="M348.44,73.28h-6.17V80.1h6.87l-.3,2H340V63.46h8.75v2h-6.48v5.77h6.17Z"/><path class="cls-17" d="M352.93,77.15c.15,1.85,1,3.34,3,3.34s2.81-1.06,2.81-3.06-.79-2.9-3.29-4.1c-3-1.42-4.26-2.72-4.26-5.44A4.46,4.46,0,0,1,356,63.2c3.72,0,4.7,2.63,4.76,4.86h-2.26c-.09-.93-.37-3-2.57-3a2.32,2.32,0,0,0-2.43,2.61c0,1.7.76,2.5,3.07,3.59,3.27,1.56,4.53,3.1,4.53,5.94s-1.7,5.15-5.23,5.15c-3.84,0-5.08-2.5-5.22-5.23Z"/><path class="cls-17" d="M366.2,65.49h-4.13v-2h10.55v2h-4.13V82.11H366.2Z"/><path class="cls-17" d="M376.87,63.46V82.11h-2.29V63.46Z"/><path class="cls-17" d="M380.51,82.11V63.46h2.77c4.91,12.42,5.63,14.21,5.87,15h0c-.13-2.45-.16-5.25-.16-8.29V63.46h2.12V82.11h-2.64c-5.1-13.07-5.77-14.84-6-15.6h0c.14,2.33.15,5.33.15,8.68v6.92Z"/><path class="cls-17" d="M396.73,76.42l-1.27,5.69h-2.3l4.47-18.65h3l4.58,18.65h-2.42l-1.29-5.69Zm4.3-2c-1-4.39-1.69-7.25-1.94-8.79H399c-.25,1.64-1,4.89-1.85,8.79Z"/><path class="cls-17" d="M407.15,63.46h2.29V80.11h6.61l-.3,2h-8.6Z"/><path class="cls-17" d="M311.24,91.1v13c0,2,.56,3.94,2.95,3.94s2.94-1.67,2.94-4v-13h2.29v13.07c0,3.39-1.24,5.88-5.29,5.88s-5.19-2.34-5.19-5.78V91.1Z"/><path class="cls-17" d="M322.79,109.75V91.1h2.76c4.91,12.41,5.64,14.21,5.88,15h0c-.13-2.46-.16-5.25-.16-8.29V91.1h2.12v18.65h-2.64c-5.1-13.07-5.77-14.84-6-15.6h0c.14,2.33.15,5.32.15,8.68v6.92Z"/><path class="cls-17" d="M339.3,91.1v18.65H337V91.1Z"/><path class="cls-17" d="M345.31,93.13h-4.12v-2h10.54v2H347.6v16.62h-2.29Z"/><path class="cls-17" d="M358.77,91.1h8.78v2h-6.5v6h6.1v2h-6.1v8.65h-2.28Z"/><path class="cls-17" d="M380.46,100.26c0,6.45-1.57,9.77-5.66,9.77-3.88,0-5.54-3.22-5.54-9.75s1.95-9.46,5.64-9.46C378.8,90.82,380.46,93.91,380.46,100.26Zm-8.83,0c0,5.15,1,7.82,3.24,7.82s3.23-2.57,3.23-7.79-1-7.46-3.25-7.46S371.63,95.34,371.63,100.24Z"/><path class="cls-17" d="M385.65,101.28v8.47h-2.28V91.1h5c3.18,0,4.87,1.77,4.87,4.87,0,2.77-1.38,4-2.48,4.34,1.68.62,2.24,2.09,2.24,4.73v.74a21.31,21.31,0,0,0,.26,4H391a17.35,17.35,0,0,1-.28-4v-.64c0-2.63-.55-3.82-3-3.82Zm0-1.92h2.23c2.22,0,3.07-1.21,3.07-3.32,0-1.82-.85-3-2.84-3h-2.46Z"/><path class="cls-17" d="M311.42,120.77h-4.13v-2h10.55v2h-4.13v16.62h-2.29Z"/><path class="cls-17" d="M322.09,118.74v18.65h-2.3V118.74Z"/><path class="cls-17" d="M326.85,132.43c.15,1.84,1,3.34,3,3.34s2.81-1.06,2.81-3.06-.78-2.9-3.29-4.1c-3-1.42-4.25-2.72-4.25-5.44a4.45,4.45,0,0,1,4.8-4.69c3.71,0,4.7,2.63,4.75,4.86H332.4c-.09-.93-.37-3-2.56-3A2.32,2.32,0,0,0,327.4,123c0,1.7.76,2.51,3.07,3.6,3.28,1.55,4.53,3.1,4.53,5.94s-1.69,5.15-5.22,5.15c-3.84,0-5.09-2.51-5.23-5.23Z"/><path class="cls-17" d="M339.11,132.43c.15,1.84,1,3.34,3,3.34s2.81-1.06,2.81-3.06-.79-2.9-3.29-4.1c-3-1.42-4.25-2.72-4.25-5.44a4.45,4.45,0,0,1,4.8-4.69c3.71,0,4.69,2.63,4.75,4.86h-2.26c-.09-.93-.37-3-2.56-3a2.32,2.32,0,0,0-2.44,2.61c0,1.7.76,2.51,3.07,3.6,3.28,1.55,4.53,3.1,4.53,5.94s-1.69,5.15-5.22,5.15c-3.84,0-5.09-2.51-5.23-5.23Z"/><path class="cls-17" d="M352,118.74v13c0,2,.55,3.94,2.94,3.94s2.94-1.66,2.94-3.94v-13h2.3v13.07c0,3.39-1.25,5.88-5.3,5.88s-5.19-2.34-5.19-5.79V118.74Z"/><path class="cls-17" d="M372,128.56h-6.18v6.82h6.88l-.31,2h-8.84V118.74h8.76v2h-6.49v5.77H372Z"/><path class="cls-17" d="M310.27,160.06c.15,1.85,1,3.35,3,3.35s2.81-1.06,2.81-3.06-.79-2.9-3.29-4.1c-3-1.42-4.26-2.73-4.26-5.44a4.46,4.46,0,0,1,4.8-4.69c3.72,0,4.7,2.63,4.76,4.86h-2.26c-.09-.93-.37-3-2.57-3a2.32,2.32,0,0,0-2.43,2.61c0,1.7.76,2.5,3.07,3.6,3.27,1.55,4.53,3.1,4.53,5.94s-1.7,5.15-5.23,5.15c-3.84,0-5.08-2.51-5.22-5.24Z"/><path class="cls-17" d="M331,159.81c-.09,1.06-.53,5.5-5.18,5.5-5,0-5.45-5.13-5.45-9.72,0-5.54,1.5-9.49,5.67-9.49,4.58,0,4.86,4.22,4.91,5.43h-2.3c0-.64-.14-3.41-2.65-3.41-2.78,0-3.24,3.74-3.24,7.49s.42,7.71,3.12,7.71c2.39,0,2.72-2.61,2.81-3.51Z"/><path class="cls-17" d="M335.78,146.37V165h-2.3V146.37Z"/><path class="cls-17" d="M347.87,156.2h-6.18V163h6.88l-.31,2h-8.84V146.37h8.75v2h-6.48v5.77h6.18Z"/><path class="cls-17" d="M350.77,165V146.37h2.77c4.91,12.42,5.63,14.22,5.87,15h0c-.14-2.46-.17-5.25-.17-8.29v-6.76h2.12V165h-2.64c-5.1-13.08-5.76-14.84-6-15.6h0c.14,2.33.15,5.32.15,8.68V165Z"/><path class="cls-17" d="M374.92,159.81c-.09,1.06-.54,5.5-5.18,5.5-5,0-5.45-5.13-5.45-9.72,0-5.54,1.5-9.49,5.67-9.49,4.58,0,4.86,4.22,4.91,5.43h-2.3c0-.64-.14-3.41-2.65-3.41-2.78,0-3.24,3.74-3.24,7.49s.42,7.71,3.11,7.71c2.4,0,2.73-2.61,2.82-3.51Z"/><path class="cls-17" d="M385.83,156.2h-6.18V163h6.88l-.31,2h-8.84V146.37h8.75v2h-6.48v5.77h6.18Z"/></svg>