<svg id="Laag_1" data-name="Laag 1" xmlns="http://www.w3.org/2000/svg" viewBox="0 0 168.61 195.65"><defs><style>.cls-1{fill:#119995;}.cls-2{fill:#eb98aa;}.cls-3{fill:#932a86;}.cls-4{fill:#f0a208;}.cls-5{fill:#cf1d50;}.cls-6{fill:#dd4372;}.cls-7{fill:#46315f;}.cls-8{fill:#dd5b79;}.cls-9{fill:#d4321b;}.cls-10{fill:#8e2e2a;}.cls-11{fill:#c81e1c;}.cls-12{fill:#e26f0e;}.cls-13{fill:#d84e15;}</style></defs><path class="cls-1" d="M39.07,155.16a7.75,7.75,0,0,0,7.75,7.75H76.47c-1.52-1.24-2.22-4.59-2.22-7.75a16.85,16.85,0,0,1,.84-5.58,5,5,0,0,1,1.37-2.17H46.82A7.76,7.76,0,0,0,39.07,155.16Z"/><path class="cls-2" d="M100.54,73.25a5.67,5.67,0,0,0-1-5.37l-.14-.16.14-.16a5.68,5.68,0,0,0-3-9.12l-.2,0,0-.2A5.64,5.64,0,0,0,94,53.24a5.74,5.74,0,0,0-5.43-.69l-.19.08-.11-.18a5.69,5.69,0,0,0-9.59,0l-.11.18-.19-.08a5.74,5.74,0,0,0-5.43.69,5.65,5.65,0,0,0-2.33,4.95l0,.2-.2,0a5.68,5.68,0,0,0-3,9.12l.13.16-.13.16a5.67,5.67,0,0,0,3,9.11l.2.06v.2a5.63,5.63,0,0,0,2.32,5,5.73,5.73,0,0,0,5.43.69l.19-.08.11.18a5.69,5.69,0,0,0,9.59,0l.11-.18.19.08A5.73,5.73,0,0,0,94,82.2a5.63,5.63,0,0,0,2.32-5v-.2l.2-.06A5.61,5.61,0,0,0,100.54,73.25Zm-9.76-5.37a5.52,5.52,0,0,0-1,1.87,5.78,5.78,0,0,0-.27,2.11l0,.21-.21.05a5.54,5.54,0,0,0-1.92.9,5.81,5.81,0,0,0-1.46,1.55l-.11.18-.19-.08a5.82,5.82,0,0,0-4.19,0l-.19.08-.11-.18A5.66,5.66,0,0,0,79.66,73a5.54,5.54,0,0,0-1.92-.9l-.2-.05v-.21a5.78,5.78,0,0,0-.27-2.11,5.67,5.67,0,0,0-1-1.87l-.14-.16.14-.16a5.67,5.67,0,0,0,1-1.87,5.78,5.78,0,0,0,.27-2.11v-.2l.2-.06a5.63,5.63,0,0,0,3.38-2.46l.11-.17.19.08a5.82,5.82,0,0,0,4.19,0l.19-.08.11.17a5.56,5.56,0,0,0,1.46,1.56,5.5,5.5,0,0,0,1.93.9l.2.06,0,.2a5.78,5.78,0,0,0,.27,2.11,5.52,5.52,0,0,0,1,1.87l.13.16Z"/><path class="cls-3" d="M77.81,147.41a7.75,7.75,0,0,0,0,15.5h21.5a22.34,22.34,0,0,0-.25-44.68h0l-8.37-.14a7.75,7.75,0,0,0-.13,15.5l8.43.14a6.84,6.84,0,0,1,0,13.68Z"/><path class="cls-4" d="M89.39,118.07l-18.51-.33a6.84,6.84,0,0,1,.1-13.67c1.83.05,4.67.09,5.6.06V94.76c0-.63,0-1.28,0-1.92a44.12,44.12,0,0,0-14-7.25l-.38.42-.27.3c-.49.55-1,1.13-1.42,1.69q-.47.6-1,1.17c-.41.5-.85,1-1.34,1.48l-.31.35-.15.2-.35.49-.05.07-.58.83a1.6,1.6,0,0,1,.25.93v.11l-.08.06a22.33,22.33,0,0,0,13.75,39.55l18.54.33c-1.48-1.25-2.14-4.5-2.11-7.72S87.85,119.29,89.39,118.07Z"/><path class="cls-5" d="M118.23,40.17a44.85,44.85,0,0,0-4.77-4.37A53.9,53.9,0,0,0,107.27,32a21.37,21.37,0,0,0-1.19,2.91,17.35,17.35,0,0,0-.6,2.71l-.06.4-.33-.24A36.92,36.92,0,1,0,80.18,104.5c1.1.1,2.22.15,3.34.15h.06a36.91,36.91,0,0,0,28.11-13.08l1.47-1.85.06,0a37.05,37.05,0,0,0,7.29-22l.06-24.64c0-.17,0-.36,0-.55C119.76,41.8,119,41,118.23,40.17Zm-34.47,49h-.24A21.06,21.06,0,0,1,81.27,89a21.4,21.4,0,1,1,2.49.12Z"/><path class="cls-6" d="M80.16,104.75q1.65.15,3.36.15h-.31l-3-.14m3.36-74.21a37.16,37.16,0,0,0-26.77,63,22.51,22.51,0,0,1,14.38-5.18h.37l9.8.45a21.13,21.13,0,1,1,2.45.12h0a21.09,21.09,0,0,0,16.42-8l0,0a21,21,0,0,0,4.57-13.15l.06-24.82a42.77,42.77,0,0,1,.41-5.34,36.91,36.91,0,0,0-21.71-7"/><path class="cls-1" d="M77.81,147.16h-31a8,8,0,1,0,0,16h31a8,8,0,0,1,0-16"/><path class="cls-3" d="M90.83,117.84a8,8,0,0,1-.13,16h-.14l8.29.14H99a6.59,6.59,0,0,1,0,13.18H77.81a8,8,0,0,1,0,16h21.5A22.59,22.59,0,0,0,99.06,118l-8.23-.14"/><path class="cls-7" d="M77.81,147.16h0a8,8,0,0,0,0,16h0a8,8,0,0,0,0-16"/><path class="cls-2" d="M83.52,49.57a5.93,5.93,0,0,0-5,2.75A5.93,5.93,0,0,1,81.33,61a6,6,0,0,0,4.37,0,5.93,5.93,0,0,1,2.82-8.68,5.93,5.93,0,0,0-5-2.75"/><path class="cls-2" d="M83.52,74a5.88,5.88,0,0,0-2.19.41,5.93,5.93,0,0,1-2.82,8.68,5.93,5.93,0,0,0,10,0,5.93,5.93,0,0,1-2.82-8.68A5.87,5.87,0,0,0,83.52,74"/><path class="cls-2" d="M76.32,51.9a5.92,5.92,0,0,0-5.9,6.3,5.93,5.93,0,0,1,7.38,5.37A5.95,5.95,0,0,0,81.33,61a5.93,5.93,0,0,1-2.82-8.68,5.88,5.88,0,0,0-2.19-.42"/><path class="cls-8" d="M78.51,52.32A5.93,5.93,0,0,0,81.33,61a5.93,5.93,0,0,0-2.82-8.68"/><path class="cls-2" d="M89.23,71.87a6.06,6.06,0,0,0-2,.95,6,6,0,0,0-1.52,1.62,5.93,5.93,0,0,1,2.82,8.68,6.09,6.09,0,0,0,2.19.42,5.94,5.94,0,0,0,5.9-6.3,5.9,5.9,0,0,1-1.46.18,5.78,5.78,0,0,1-1.83-.29,5.92,5.92,0,0,1-4.09-5.26"/><path class="cls-8" d="M85.7,74.44a5.93,5.93,0,0,0,2.82,8.68,5.93,5.93,0,0,0-2.82-8.68"/><path class="cls-2" d="M70.42,58.2a5.93,5.93,0,0,0-3.1,9.52,5.92,5.92,0,0,1,2.74-1.85,5.8,5.8,0,0,1,1.83-.3,6,6,0,0,1,4.56,2.15,6.05,6.05,0,0,0,1.07-2,6,6,0,0,0,.28-2.2,6.1,6.1,0,0,1-1.47.18,5.9,5.9,0,0,1-4.79-2.44,5.81,5.81,0,0,1-1.12-3.11"/><path class="cls-8" d="M71.88,58a5.9,5.9,0,0,0-1.46.18,5.81,5.81,0,0,0,1.12,3.11,5.9,5.9,0,0,0,4.79,2.44,6.1,6.1,0,0,0,1.47-.18A5.92,5.92,0,0,0,71.88,58"/><path class="cls-2" d="M99.71,67.72a5.92,5.92,0,0,1-9.13,0,6.05,6.05,0,0,0-1.07,2,6,6,0,0,0-.28,2.2,6.16,6.16,0,0,1,1.47-.18,5.9,5.9,0,0,1,4.79,2.44,5.81,5.81,0,0,1,1.12,3.11,5.93,5.93,0,0,0,3.1-9.52"/><path class="cls-8" d="M90.7,71.69a6.16,6.16,0,0,0-1.47.18,5.92,5.92,0,0,0,4.09,5.26,5.78,5.78,0,0,0,1.83.29,5.9,5.9,0,0,0,1.46-.18,5.81,5.81,0,0,0-1.12-3.11,5.9,5.9,0,0,0-4.79-2.44"/><path class="cls-2" d="M67.32,67.72a5.93,5.93,0,0,0,3.1,9.52,5.81,5.81,0,0,1,1.12-3.11,5.9,5.9,0,0,1,4.79-2.44,6.1,6.1,0,0,1,1.47.18,6,6,0,0,0-1.35-4.15,6,6,0,0,1-4.56,2.15,5.8,5.8,0,0,1-1.83-.3,5.92,5.92,0,0,1-2.74-1.85"/><path class="cls-8" d="M71.89,65.57a5.8,5.8,0,0,0-1.83.3,5.92,5.92,0,0,0-2.74,1.85,5.92,5.92,0,0,0,2.74,1.85,5.8,5.8,0,0,0,1.83.3,6,6,0,0,0,4.56-2.15,6,6,0,0,0-4.56-2.15"/><path class="cls-2" d="M96.61,58.2a5.81,5.81,0,0,1-1.12,3.11,5.9,5.9,0,0,1-4.79,2.44,6.16,6.16,0,0,1-1.47-.18,6,6,0,0,0,.28,2.2,6.05,6.05,0,0,0,1.07,2,5.94,5.94,0,0,1,9.13,0,5.93,5.93,0,0,0-3.1-9.52"/><path class="cls-8" d="M95.14,65.57a6,6,0,0,0-4.56,2.15,5.94,5.94,0,0,0,9.13,0,6,6,0,0,0-4.57-2.15"/><path class="cls-2" d="M77.8,71.87a5.94,5.94,0,0,1-7.38,5.37,5.94,5.94,0,0,0,5.9,6.3,6,6,0,0,0,2.19-.42,5.93,5.93,0,0,1,2.82-8.68,5.95,5.95,0,0,0-3.53-2.57"/><path class="cls-8" d="M81.33,74.44a5.93,5.93,0,0,0-2.82,8.68,5.93,5.93,0,0,0,2.82-8.68"/><path class="cls-8" d="M76.33,71.69a5.9,5.9,0,0,0-4.79,2.44,5.81,5.81,0,0,0-1.12,3.11,5.93,5.93,0,0,0,7.38-5.37,6.1,6.1,0,0,0-1.47-.18"/><path class="cls-2" d="M90.71,51.9a5.88,5.88,0,0,0-2.19.42A5.93,5.93,0,0,1,85.7,61a6,6,0,0,0,1.52,1.62,6.06,6.06,0,0,0,2,1,5.92,5.92,0,0,1,4.09-5.26A5.78,5.78,0,0,1,95.15,58a5.9,5.9,0,0,1,1.46.18,5.92,5.92,0,0,0-5.9-6.3"/><path class="cls-8" d="M88.52,52.32A5.93,5.93,0,0,0,85.7,61a5.93,5.93,0,0,0,2.82-8.68"/><path class="cls-8" d="M95.15,58a5.78,5.78,0,0,0-1.83.29,5.92,5.92,0,0,0-4.09,5.26,6.16,6.16,0,0,0,1.47.18,5.9,5.9,0,0,0,4.79-2.44,5.81,5.81,0,0,0,1.12-3.11A5.9,5.9,0,0,0,95.15,58"/><path class="cls-4" d="M54.46,114.94a4.34,4.34,0,1,1,5.59-1.26,4.32,4.32,0,0,1,2.26,3.81,4.93,4.93,0,0,1,0,.55h0a4.35,4.35,0,0,1,4.2,3.24,4.25,4.25,0,0,1,1.82-.4,4.34,4.34,0,0,1,3.49,1.76,4.34,4.34,0,1,1-.56,5.78,4.34,4.34,0,0,1-7.13-2.09,4.4,4.4,0,0,1-1.82.39A4.34,4.34,0,0,1,58,122.38a5.09,5.09,0,0,1,0-.55h0a4.34,4.34,0,0,1-4.33-4.34,4.29,4.29,0,0,1,.82-2.55M56.75,93.5a22.58,22.58,0,0,0,13.9,40l19.91.35a8,8,0,0,1,.13-16h.14l-19.7-.34h0A6.59,6.59,0,0,1,71,104.32l9.18.43A37.12,37.12,0,0,1,56.75,93.5m56-2.69,0,0a9.48,9.48,0,0,1-.8.87,37.13,37.13,0,0,1-28.3,13.17h0a37,37,0,0,0,29.11-14l0,0m-31.42-2a20.36,20.36,0,0,0,2.22.12h.23l-2.45-.12"/><path class="cls-9" d="M100.19,80.87l0,0a21.09,21.09,0,0,1-16.42,8h-.23a20.36,20.36,0,0,1-2.22-.12l-9.8-.45h-.37A22.51,22.51,0,0,0,56.75,93.5a37.12,37.12,0,0,0,23.41,11.25l3,.14h.37a37.13,37.13,0,0,0,28.3-13.17,8,8,0,0,1-11.71-10.84l0,0"/><path class="cls-10" d="M90.69,117.84a8,8,0,0,0-.13,16h.14a8,8,0,0,0,.13-16h-.14"/><path class="cls-6" d="M126.07,20.27a20.83,20.83,0,0,0-20.22,14.54,18.2,18.2,0,0,0-.62,2.75,37.14,37.14,0,0,1,8.13,52.31,9.19,9.19,0,0,1-.64.94,37.25,37.25,0,0,0,8-23.07l.06-24.64a27.16,27.16,0,0,1,.28-3.47,5.34,5.34,0,0,1,10,.09,6.71,6.71,0,0,1,.29,2.6A8,8,0,0,0,138.61,51l.73,0a8,8,0,0,0,7.94-7.29,22.41,22.41,0,0,0-1-8.92,20.84,20.84,0,0,0-20.22-14.54"/><path class="cls-5" d="M105.23,37.56a42.77,42.77,0,0,0-.41,5.34l-.06,24.82a21,21,0,0,1-4.57,13.15,8,8,0,0,1,13.17,9,37.14,37.14,0,0,0-8.13-52.31"/><path class="cls-9" d="M113.36,89.87c-.47.63-1,1.25-1.48,1.86a9.48,9.48,0,0,0,.8-.87l0,0a9.19,9.19,0,0,0,.64-.94"/><path class="cls-11" d="M106.43,77.87a8,8,0,0,0-6.24,3l0,0a8,8,0,0,0,11.71,10.84c.51-.61,1-1.23,1.48-1.86a8,8,0,0,0-6.93-12"/><path class="cls-12" d="M56.54,106.79a4.34,4.34,0,0,0-2.08,8.15A4.32,4.32,0,0,1,58,113.15a4.26,4.26,0,0,1,2.08.53,4.34,4.34,0,0,0-3.51-6.89"/><path class="cls-12" d="M74.74,121.5a4.3,4.3,0,0,0-2.92,1.14,4.34,4.34,0,0,1-.56,5.78,4.34,4.34,0,1,0,3.48-6.92"/><path class="cls-12" d="M62.31,118h0A4.34,4.34,0,0,1,58,121.83a5.09,5.09,0,0,0,0,.55,4.34,4.34,0,0,0,4.34,4.34,4.4,4.4,0,0,0,1.82-.39,4.56,4.56,0,0,1-.14-1.11,4.33,4.33,0,0,1,2.52-3.94,4.35,4.35,0,0,0-4.2-3.24"/><path class="cls-12" d="M68.33,120.88a4.25,4.25,0,0,0-1.82.4,4.42,4.42,0,0,1,.14,1.1,4.35,4.35,0,0,1-2.52,4,4.34,4.34,0,0,0,7.13,2.09,4.31,4.31,0,0,1,.56-5.78,4.34,4.34,0,0,0-3.49-1.76"/><path class="cls-13" d="M71.82,122.64a4.31,4.31,0,0,0-.56,5.78,4.34,4.34,0,0,0,.56-5.78"/><path class="cls-13" d="M66.51,121.28A4.33,4.33,0,0,0,64,125.22a4.56,4.56,0,0,0,.14,1.11,4.35,4.35,0,0,0,2.52-4,4.42,4.42,0,0,0-.14-1.1"/><path class="cls-12" d="M60.05,113.68a4.35,4.35,0,0,1-3.51,1.79,4.43,4.43,0,0,1-2.08-.53,4.29,4.29,0,0,0-.82,2.55A4.34,4.34,0,0,0,58,121.83h0A4.35,4.35,0,0,1,62.28,118a4.93,4.93,0,0,0,0-.55,4.32,4.32,0,0,0-2.26-3.81"/><path class="cls-13" d="M58,113.15a4.32,4.32,0,0,0-3.51,1.79,4.43,4.43,0,0,0,2.08.53,4.35,4.35,0,0,0,3.51-1.79,4.26,4.26,0,0,0-2.08-.53"/><path class="cls-13" d="M62.28,118A4.35,4.35,0,0,0,58,121.83,4.34,4.34,0,0,0,62.28,118"/></svg>